<svg xmlns="http://www.w3.org/2000/svg" viewBox="0 0 453.17 592.62"><defs><style>.cls-1{fill:#009;}.cls-2{fill:#fff;}</style></defs><g id="Capa_2" data-name="Capa 2"><g id="Capa_1-2" data-name="Capa 1"><path class="cls-1" d="M7.64,494.57a37.26,37.26,0,0,0,17.63,18,41.09,41.09,0,0,0,6,2.27l6.24,1.82L50,520.33l49.84,14.8,99.58,30,49.73,15.19,12.42,3.83,6.21,1.92,3.11,1,3,.77a35.43,35.43,0,0,0,40.31-20.82l1.07-2.89c.34-1,.65-2.06,1-3.09l1.94-6.2L322,542.34l15.49-49.63L399.3,294.13l31-99.26,15.5-49.63,3.88-12.41c.64-2.07,1.32-4.13,1.85-6.2a40.35,40.35,0,0,0,1-6.37A37.06,37.06,0,0,0,445.38,96l.33-.23a37.57,37.57,0,0,1,7.4,24.55,41.65,41.65,0,0,1-.94,6.48c-.54,2.13-1.2,4.18-1.82,6.26l-3.78,12.44-15.12,49.74-30.23,99.5L340.55,493.65,325.43,543.4l-3.78,12.43-1.89,6.22c-.33,1-.62,2.06-1,3.12l-1.16,3.21A39.21,39.21,0,0,1,273,591.73c-1.1-.28-2.22-.55-3.31-.84l-3.1-.95-6.22-1.89-12.43-3.81-49.68-15.33L99,537.8,49.43,522.08l-12.38-4-6.19-2a41.31,41.31,0,0,1-6.1-2.49,37.5,37.5,0,0,1-10.44-7.92,37.94,37.94,0,0,1-7-11Z"/><path class="cls-1" d="M173.6,4h0a33.2,33.2,0,0,1,10,1.54l239,75a33.28,33.28,0,0,1,21.79,41.71L308,556.77a33.22,33.22,0,0,1-41.71,21.79l-239-75A33.28,33.28,0,0,1,5.54,461.89L141.86,27.33A33.14,33.14,0,0,1,173.6,4m0-4A37.29,37.29,0,0,0,138,26.13L1.72,460.69a37.29,37.29,0,0,0,24.41,46.73l239,75A37.24,37.24,0,0,0,311.82,558L448.14,123.41a37.29,37.29,0,0,0-24.41-46.73l-239-75A37.08,37.08,0,0,0,173.6,0Z"/><path class="cls-2" d="M267.44,525.43a35.56,35.56,0,0,1-10.66-1.65L66,463.94a35.59,35.59,0,0,1-23.3-44.61l111.67-356A35.56,35.56,0,0,1,199,40.07L389.75,99.91a35.59,35.59,0,0,1,23.3,44.61l-111.67,356A35.44,35.44,0,0,1,267.44,525.43Z"/><path class="cls-1" d="M188.32,40.12a33.86,33.86,0,0,1,10.16,1.56l190.76,59.84A33.9,33.9,0,0,1,411.44,144L299.77,500a33.83,33.83,0,0,1-42.49,22.2L66.52,462.33a33.94,33.94,0,0,1-22.2-42.49L156,63.88a33.76,33.76,0,0,1,32.33-23.76h0m0-3.38a37.31,37.31,0,0,0-35.56,26.13L41.1,418.83a37.26,37.26,0,0,0,24.41,46.72L256.27,525.4A37.28,37.28,0,0,0,303,501L414.66,145A37.27,37.27,0,0,0,390.25,98.3L199.49,38.46a37.08,37.08,0,0,0-11.17-1.72Z"/><path class="cls-1" d="M137.49,497.37v2a13.5,13.5,0,0,1,4.07.63l18.78,5.89a13.6,13.6,0,1,1-8.14,26L133.42,526a13.61,13.61,0,0,1,4.06-26.59v-2m0,0a15.61,15.61,0,0,0-14.88,10.94h0a15.6,15.6,0,0,0,10.22,19.56l18.78,5.89a15.59,15.59,0,0,0,19.56-10.22h0A15.6,15.6,0,0,0,160.94,504l-18.78-5.89a15.57,15.57,0,0,0-4.68-.72Z"/><path class="cls-1" d="M129.36,322.46A42.73,42.73,0,0,1,118,340.3c-5.38,4.93-10.79,7.88-16.15,8.12q-11.25.49-22.51.95l1.6-4.95,4-.12q28.95-89.57,57.91-179.13l-3.44-1.7c.64-1.95.95-2.93,1.59-4.89q9.57,4.9,19.17,9.74c4.57,2.31,7.64,6.8,9.29,13.27a34.69,34.69,0,0,1-.8,19.78Q149,261.93,129.36,322.46Zm-38,21.65q28.49-88.11,57-176.22l-2.76-1.36q-28.74,88.85-57.46,177.68Zm21.73-10.77,47.85-147.65a16.18,16.18,0,0,0,.68-7.89c-.44-2.48-1.43-4.12-3-4.86l-4.79-2.34q-28,86.66-56.09,173.32l5.57-.18c1.78-.06,3.62-1.12,5.52-3.15A18.93,18.93,0,0,0,113.09,333.34Zm8.64-7L164.25,195.2c2.17-6.68,2.19-12.59.12-17.92.46,3.71-.13,8.09-1.79,13.2L117.4,329.88a36.56,36.56,0,0,1-6.5,12.39A32.35,32.35,0,0,0,121.73,326.34Z"/><path class="cls-1" d="M149.89,346.06q-10.5.57-21,1.09l1.42-4.35,4-.15q25.45-78.42,50.95-156.84l-3.45-1.65c.56-1.72.84-2.57,1.39-4.29,7.16,3.57,10.74,5.34,17.9,8.86-.52,1.61-.79,2.42-1.31,4l-3.45-1.64-49.14,151,4-.17C150.69,343.61,150.42,344.43,149.89,346.06Zm-9.14-3.66q25-77,50.05-153.93L188,187.14q-25.26,77.7-50.5,155.38Z"/><path class="cls-1" d="M200.36,324.42a31.68,31.68,0,0,1-10,14.43c-4.85,4.13-10,6.47-15.23,6.8s-9.09-1.5-11.22-5.69-2.14-9.53-.1-15.8q4.07-12.46,8.12-24.93c5,.45,7.44.68,12.4,1.11l-10.86,33.29q-2.79,8.52,2.9,8.24t8.29-8.5l8.13-24.9c2.22-6.79,2.92-12.82,2.18-18.31-1.7-11.89-3.08-23.83-4.3-35.78a49,49,0,0,1,2.61-20.66q3.39-10.42,6.79-20.85c2-6.19,5.28-10.81,9.72-13.65a12.9,12.9,0,0,1,13.44-.82c4.49,2.21,7.59,6.07,9.37,11.38a24.74,24.74,0,0,1,0,16.08q-3.59,10.92-7.16,21.86c-4.67-1.39-7-2.09-11.65-3.5l10.38-31.74q2.64-8.08-2.17-10.36t-7.61,6.08q-4,12.31-8,24.61A46.15,46.15,0,0,0,204,252.05c1.32,11.58,2.82,23.14,4.64,34.66a38.71,38.71,0,0,1-1.84,18.2C204.2,312.71,202.92,316.61,200.36,324.42Zm-32.8,14.35c-.53-2.68-.09-6.17,1.3-10.41q4-12.33,8-24.66l-3.11-.24q-3.63,11.18-7.28,22.34C164.74,331.22,165.07,335.6,167.56,338.77Zm25.38-11.14q3.45-10.51,6.88-21c2.2-6.71,2.84-12.72,2-18.27-1.77-11.66-3.22-23.38-4.5-35.11a48.26,48.26,0,0,1,2.56-20.05q3.62-11.05,7.21-22.1a23.73,23.73,0,0,1,5.18-9.4c-4.12,1.77-7.09,5.44-8.86,10.86q-3.37,10.38-6.76,20.74A49.84,49.84,0,0,0,194,253.61c1.26,11.8,2.69,23.58,4.43,35.32.82,5.59.16,11.66-2.06,18.45q-3.78,11.56-7.57,23.14a25.74,25.74,0,0,1-5.76,10A24.48,24.48,0,0,0,192.94,327.63Zm27.86-85.15q3.62-11,7.22-22a18.76,18.76,0,0,0-.87-14.77,21.38,21.38,0,0,1-1.06,10.87l-8.19,25Z"/><path class="cls-1" d="M241.48,340.35q-20.31,1.42-40.63,2.73c.45-1.39.68-2.08,1.14-3.47l4-.21q20.44-62.28,40.88-124.57l-3.46-1.6,1.12-3.4q17.29,8.26,34.65,16.41-5.61,17-11.23,34l-11.68-3.39q5.38-16.37,10.79-32.72L258,220l-17.76,54c5.67,1.16,8.51,1.73,14.18,2.87-.4,1.22-.6,1.83-1,3-5.69-1.06-8.54-1.6-14.23-2.69L219,338.71l10.52-.58q5.46-16.59,10.93-33.19c5,.38,7.47.57,12.45.93Q247.17,323.12,241.48,340.35Zm-29-1.29q20-60.82,40-121.66l-2.78-1.28q-20.22,61.56-40.43,123.11Zm23.48-1.3q4.83-14.65,9.67-29.31l-3.12-.19q-4.91,14.83-9.79,29.68Zm27.13-82.18q4.77-14.47,9.56-29l-2.79-1.26Q265,240,260.19,254.69Z"/><path class="cls-1" d="M320.11,247.82l-3.48-1.53Q301.44,291.64,286.26,337c-4.17.34-6.26.5-10.43.82,2.24-27.44,5-54.82,8-82.18Q270.44,296.06,257,336.5l4-.26c-.37,1.1-.55,1.65-.91,2.75l-12.17.9,1-2.9,4-.25Q270.14,285,287.3,233.24l-3.48-1.57c.38-1.13.57-1.7.94-2.83,5.62,2.62,8.43,3.92,14.05,6.52Q294.93,271.66,292,308q10.57-31.63,21.17-63.28l-3.49-1.54.83-2.47,10.4,4.76Zm4.75-17.41c-.84,1.28-1.27,1.93-2.11,3.24-2.62,4.21-6.16,5.33-10.56,3.19a18.54,18.54,0,0,1-3.31-2.08c-3.84-3-5.75-4.6-9.56-7.78a8.23,8.23,0,0,0-1.71-1.21c-2-1-4.12-.5-6.36,1.7l-2.05-1.87c.93-1.65,1.39-2.47,2.3-4.11,2.89-5.06,6.48-6.28,10.84-3.8a19.41,19.41,0,0,1,3.15,2.29c3.78,3.37,5.68,5,9.49,8.26a11.25,11.25,0,0,0,1.66,1.14c2,1.1,4.09.77,6.12-.91Zm-2.17.59-.35-.35a5.69,5.69,0,0,1-6.62.79,13.56,13.56,0,0,1-2.42-1.67c-3.65-3.1-5.46-4.68-9.06-7.9a15,15,0,0,0-2.71-2c-3.71-2.05-7.06-.56-10.09,4.66l.35.35c2.92-3.29,5.75-4.1,8.55-2.6a13.64,13.64,0,0,1,2.1,1.46c3.7,3.22,5.56,4.8,9.29,7.88a16.46,16.46,0,0,0,2.93,2C317.38,235.06,320.08,234.12,322.69,231Zm-39,103.78c2.48-33,5.75-66,9.49-98.92l-3.07-1.37c-3.89,33.46-7.33,66.95-10,100.53Z"/><path class="cls-1" d="M340.26,323c-1,2.81-3.67,5.29-8.19,7.65a39.68,39.68,0,0,1-15,4.39c-5.38.47-9.6-.28-12.61-2.49s-3.87-5.21-2.68-8.75l21.3-63.38c1.17-3.47,3.85-5.8,8-6.78s8.43-.3,13,1.78a27.65,27.65,0,0,1,10.81,8.38c2.6,3.42,3.47,6.38,2.53,9.12Zm-32.69,8.79c-.91-1.44-.95-3.39-.15-5.78q11.07-32.88,22.17-65.76a8.41,8.41,0,0,1,3.77-4.93c-3.7.44-6.09,2.27-7.12,5.32q-10.78,32-21.55,64C303.66,327.68,304.6,330.12,307.57,331.74Zm18.23-3.69q10.88-32,21.76-64a4.2,4.2,0,0,0-.62-3.71,7.72,7.72,0,0,0-3.53-3A6.32,6.32,0,0,0,339,257a3.88,3.88,0,0,0-2.74,2.55q-11.72,34.59-23.39,69.19a2.74,2.74,0,0,0,.78,3.21,5.48,5.48,0,0,0,4.15,1,11.38,11.38,0,0,0,5.06-1.65A6.4,6.4,0,0,0,325.8,328.05Zm7.47-3.26q9.5-27.81,19-55.63c.93-2.72-.05-5.52-2.88-8.6a7.3,7.3,0,0,1,.51,6.11q-10.18,29.86-20.35,59.75a10.67,10.67,0,0,1-4.41,5.43C329.62,329.88,332.32,327.59,333.27,324.79Z"/></g></g></svg>